<svg width="41" height="44" viewBox="0 0 41 44" fill="none" xmlns="http://www.w3.org/2000/svg">
<path d="M15.7349 24.5128L23.5919 19.7977V29.2279L15.7349 24.5128Z" fill="#BA6B37"/>
<path d="M23.5362 19.5636L15.7092 24.2657V14.8462L23.5362 19.5636Z" fill="#F3BE46"/>
<path d="M15.6683 34.4119L23.5253 29.6968V39.127L15.6683 34.4119Z" fill="#AC302E"/>
<path d="M23.5053 29.4628L15.7093 34.1649V24.7608L23.5053 29.4628Z" fill="#611F19"/>
<path d="M23.5362 9.66431L15.7092 14.3664V4.94855L23.5362 9.66431Z" fill="#61367D"/>
<path d="M32.9123 4.71508L25.0553 9.43016V1.8881e-06L32.9123 4.71508Z" fill="#3C2455"/>
<path d="M40.952 9.66463L33.095 14.3797V4.94956L40.952 9.66463Z" fill="#3B8149"/>
<path d="M40.952 19.5637L33.095 24.2788V14.8486L40.952 19.5637Z" fill="#F3EC6C"/>
<path d="M15.7402 14.6142L23.5971 9.89911V19.3293L15.7402 14.6142Z" fill="#D67D3C"/>
<path d="M25.1162 19.5637L32.9732 14.8486V24.2788L25.1162 19.5637Z" fill="#F4E64F"/>
<path d="M25.1162 9.66463L32.9732 4.94956V14.3797L25.1162 9.66463Z" fill="#2D6238"/>
<path d="M33.1431 14.6142L41 9.89911V19.3293L33.1431 14.6142Z" fill="#499C53"/>
<path d="M15.7402 4.71508L23.5971 0V9.43016L15.7402 4.71508Z" fill="#764489"/>
<path d="M15.7096 34.6596L23.5208 39.4328L15.6532 44L15.7096 34.6596Z" fill="#C53C35"/>
<path d="M15.5363 34.6595L7.43527 38.921L15.5363 43.94L15.5363 34.6595Z" fill="#DB6049"/>
<path d="M4.16869 25.4468L6.66017 23.4769L7.23089 26.6287L4.16869 25.4468Z" fill="#DA3B5B"/>
<path d="M8.65159 27.907L11.5128 29.5862L8.65159 31.2606V27.907Z" fill="#DA3B5B"/>
<path d="M0 25.0814L0.37818 23.0216L2.00151 24.3117L0 25.0814Z" fill="#DA3B5B"/>
<path d="M8.09118 32.5535L5.62252 28.4615L3.1658 32.5565L8.09118 32.5535Z" fill="#DA3B5B"/>
<path d="M7.6325 32.6776L8.30862 32.6771L7.68523 31.6438L7.79006 29.5882L8.54964 30.0581V31.4397L9.69734 30.7681L15.5874 34.4119L7.31792 38.8457L7.6325 32.6776Z" fill="#DA3B5B"/>
<path d="M0.244518 29.5917L0.885341 26.6504L3.25144 28.4622L0.244518 29.5917Z" fill="#DA3B5B"/>
</svg>
